HIERARCHY
ROOT RootJoint
{
    OFFSET   0.000000   0.000000   0.000000
    CHANNELS 6 Xposition Yposition Zposition Xrotation Yrotation Zrotation
    JOINT pelvis_lowerback
    {
        OFFSET   0.000000   0.093605   0.000000
        CHANNELS 3 Xrotation Yrotation Zrotation
        JOINT lowerback_torso
        {
            OFFSET   0.000000   0.100000   0.000000
            CHANNELS 3 Xrotation Yrotation Zrotation
            JOINT torso_head
            {
                OFFSET   0.000000   0.282350   0.000000
                CHANNELS 3 Xrotation Yrotation Zrotation
                End Site
                {
                    OFFSET   0.000000   0.192650   0.000000
                }
            }
            JOINT rTorso_Clavicle
            {
                OFFSET  -0.001000   0.157500   0.000000
                CHANNELS 3 Xrotation Yrotation Zrotation
                JOINT rShoulder
                {
                    OFFSET  -0.117647   0.000000   0.000000
                    CHANNELS 3 Xrotation Yrotation Zrotation
                    JOINT rElbow
                    {
                        OFFSET  -0.245000   0.000000   0.000000
                        CHANNELS 3 Xrotation Yrotation Zrotation
                        JOINT rWrist
                        {
                            OFFSET  -0.240000   0.000000   0.000000
                            CHANNELS 3 Xrotation Yrotation Zrotation
                            End Site
                            {
                                OFFSET  -0.116353  -0.002500   0.000000
                            }
                        }
                    }
                }
            }
            JOINT lTorso_Clavicle
            {
                OFFSET   0.001000   0.157500   0.000000
                CHANNELS 3 Xrotation Yrotation Zrotation
                JOINT lShoulder
                {
                    OFFSET   0.117647   0.000000   0.000000
                    CHANNELS 3 Xrotation Yrotation Zrotation
                    JOINT lElbow
                    {
                        OFFSET   0.245000   0.000000   0.000000
                        CHANNELS 3 Xrotation Yrotation Zrotation
                        JOINT lWrist
                        {
                            OFFSET   0.240000   0.000000   0.000000
                            CHANNELS 3 Xrotation Yrotation Zrotation
                            End Site
                            {
                                OFFSET   0.116353  -0.002500   0.000000
                            }
                        }
                    }
                }
            }
        }
    }
    JOINT rHip
    {
        OFFSET  -0.100000  -0.051395   0.000000
        CHANNELS 3 Xrotation Yrotation Zrotation
        JOINT rKnee
        {
            OFFSET   0.000000  -0.410000   0.000000
            CHANNELS 3 Xrotation Yrotation Zrotation
            JOINT rAnkle
            {
                OFFSET   0.000000  -0.390000   0.000000
                CHANNELS 3 Xrotation Yrotation Zrotation
                JOINT rToeJoint
                {
                    OFFSET   0.000000  -0.050000   0.130000
                    CHANNELS 3 Xrotation Yrotation Zrotation
                    End Site
                    {
                        OFFSET  -0.010000   0.002000   0.060000
                    }
                }
            }
        }
    }
    JOINT lHip
    {
        OFFSET   0.100000  -0.051395   0.000000
        CHANNELS 3 Xrotation Yrotation Zrotation
        JOINT lKnee
        {
            OFFSET   0.000000  -0.410000   0.000000
            CHANNELS 3 Xrotation Yrotation Zrotation
            JOINT lAnkle
            {
                OFFSET   0.000000  -0.390000   0.000000
                CHANNELS 3 Xrotation Yrotation Zrotation
                JOINT lToeJoint
                {
                    OFFSET   0.000000  -0.050000   0.130000
                    CHANNELS 3 Xrotation Yrotation Zrotation
                    End Site
                    {
                        OFFSET   0.010000   0.002000   0.060000
                    }
                }
            }
        }
    }
}
MOTION
Frames: 10
Frame Time:   0.008333
 -2.439879   0.897268   4.708177  -3.298172   9.582282  -4.579304  14.463066   0.824256  -3.562385  15.859882  -0.778221   1.110193   4.312248   2.891289  -2.716722   4.051636  16.482533  11.790668  17.383204  13.096463  21.759108   0.001244  14.035825  -0.001291  10.687457   1.451205  -3.612707  -4.102550 -22.479165 -14.401850  -0.024265 -12.811654 -15.414223   0.001589 -14.925353   0.000309   4.362897  -0.312486   9.820615  -9.124337  -2.956599   9.787304  19.991387  -0.000036  -0.000572  -7.537658  -4.650861  -4.393318   1.221866   0.001333  -0.001594  -8.416599  -3.409104   9.909809  50.156060  -0.004342   0.004663 -15.029130  -3.505052 -10.216946  -4.921348   0.009437   0.010488
 -2.440442   0.896606   4.711265  -3.430811   9.432675  -4.780002  14.589524   0.848296  -3.508109  15.808213  -0.851423   1.193239   4.415501   3.042245  -2.677237   4.166335  16.382887  11.828906  17.294796  12.827884  21.393002   0.001411  13.862385  -0.001594  10.699144   1.455395  -3.710473  -4.171662 -22.543375 -14.682991   0.036657 -12.755044 -15.761433   0.000946 -14.865063   0.000204   4.419370  -0.423517   9.824189  -8.848760  -3.090582  10.089835  20.188919  -0.000276  -0.000879  -7.790636  -4.662284  -4.725838   0.841273   0.000334  -0.000365  -9.293892  -3.255674  10.089163  52.123256  -0.000513   0.005980 -14.066057  -3.422589 -10.469759  -4.151057   0.010646   0.012512
 -2.440871   0.895985   4.714410  -3.581231   9.343984  -4.948952  14.724731   0.861692  -3.442708  15.779654  -0.934586   1.275164   4.512050   3.186084  -2.632869   4.282335  16.269044  11.858501  17.215982  12.559875  21.047100   0.001496  13.693010  -0.001765  10.704349   1.423859  -3.834718  -4.224144 -22.600586 -14.982077   0.097855 -12.699657 -16.118614   0.000426 -14.806349   0.000124   4.471998  -0.527889   9.783731  -8.551651  -3.201632  10.357660  20.387884  -0.000433  -0.001003  -8.037850  -4.669253  -5.043000   0.422511  -0.000553   0.000410 -10.163171  -3.088180  10.218974  53.987659   0.003614   0.007242 -13.159002  -3.348833 -10.706938  -3.402476   0.011848   0.014052
 -2.441225   0.895387   4.717618  -3.742351   9.298338  -5.096966  14.859723   0.869967  -3.374416  15.769483  -1.018081   1.352519   4.602488   3.320805  -2.587632   4.397798  16.150886  11.884017  17.145060  12.300929  20.726691   0.001520  13.531177  -0.001824  10.707812   1.372306  -3.950512  -4.263583 -22.648047 -15.282260   0.158847 -12.643281 -16.470864   0.000021 -14.749527   0.000067   4.521103  -0.621148   9.704336  -8.239373  -3.291809  10.604895  20.584701  -0.000531  -0.001005  -8.278169  -4.669991  -5.344403  -0.034660  -0.001322   0.000825 -11.008586  -2.925110  10.315886  55.726080   0.007281   0.008028 -12.312587  -3.283180 -10.929767  -2.717689   0.012684   0.014755
 -2.441571   0.894814   4.720885  -3.908587   9.309857  -5.233126  14.994128   0.869089  -3.305140  15.772673  -1.102369   1.429678   4.687121   3.446511  -2.542761   4.511389  16.031940  11.910999  17.080489  12.053885  20.432991   0.001502  13.377806  -0.001793  10.710209   1.310979  -4.049947  -4.294902 -22.688317 -15.573522   0.218345 -12.587401 -16.809656  -0.000283 -14.694920   0.000035   4.567013  -0.703905   9.602522  -7.916429  -3.344487  10.846868  20.774035  -0.000573  -0.000854  -8.534831  -4.639022  -5.580985  -0.698954  -0.001995   0.000670 -11.831833  -2.776242  10.396578  57.340336   0.010434   0.008615 -11.522972  -3.224689 -11.138669  -2.091982   0.013182   0.014902
 -2.441929   0.894316   4.724152  -4.067700   9.338329  -5.370862  15.124872   0.876566  -3.236259  15.782191  -1.175314   1.502790   4.765312   3.564300  -2.500491   4.618614  15.920033  11.940836  17.019741  11.823058  20.162003   0.001455  13.234033  -0.001695  10.712189   1.247614  -4.137719  -4.319894 -22.720471 -15.852196   0.275967 -12.531029 -17.131199  -0.000507 -14.642090   0.000018   4.609182  -0.774717   9.493079  -7.580437  -3.389323  11.089475  20.942123  -0.000581  -0.000700  -8.901737  -4.612677  -5.782191  -0.695627  -0.001593   0.000536 -12.634345  -2.638039  10.471701  58.833243   0.012776   0.008699 -10.786534  -3.172416 -11.334706  -1.520133   0.013332   0.014509
 -2.442281   0.893849   4.727416  -4.219308   9.371165  -5.498897  15.248741   0.893514  -3.177437  15.794163  -1.235812   1.566319   4.838741   3.674483  -2.461494   4.719299  15.815380  11.970882  16.962322  11.608508  19.911745   0.001394  13.100243  -0.001561  10.714387   1.189076  -4.214701  -4.338612 -22.743458 -16.113941   0.332023 -12.473425 -17.434384  -0.000666 -14.590893   0.000013   4.647914  -0.833875   9.378698  -7.241819  -3.430122  11.319998  21.087767  -0.000567  -0.000571  -9.253410  -4.589374  -5.969462  -0.689889  -0.001269   0.000429 -13.410083  -2.508463  10.528486  60.216990   0.014337   0.008320 -10.099892  -3.125852 -11.518689  -0.998685   0.013177   0.013708
 -2.442509   0.893597   4.730591  -4.298115   9.418468  -5.539936  15.376372   0.921200  -3.179877  15.726801  -1.324569   1.597639   4.911587   3.757334  -2.413218   4.771152  15.643665  12.081461  16.751690  11.396793  19.660557   0.001255  13.033645  -0.001470  10.716875   1.097611  -4.290151  -4.338492 -22.658896 -16.318641   0.358681 -12.438461 -17.890521  -0.000975 -14.514304   0.000072   4.704183  -0.978062   9.346534  -6.971002  -3.490267  11.429042  21.207899  -0.000521  -0.000486  -9.574773  -4.548845  -6.097244  -0.689896  -0.001015   0.000344 -14.251474  -2.280837  10.464436  61.308348   0.015621   0.007880  -9.614130  -2.931243 -11.539310  -0.579674   0.012216   0.012937
 -2.442679   0.893438   4.733758  -4.368233   9.495462  -5.552287  15.503023   0.959371  -3.181606  15.664074  -1.399683   1.613729   4.977744   3.832921  -2.367611   4.816352  15.479435  12.184171  16.551389  11.201544  19.425276   0.001127  12.975443  -0.001337  10.713418   1.030332  -4.387954  -4.319014 -22.561163 -16.528305   0.391004 -12.391762 -18.342132  -0.001226 -14.438013   0.000137   4.754604  -1.108434   9.270449  -6.689304  -3.553899  11.503099  21.289599  -0.000456  -0.000398  -9.878903  -4.525597  -6.218285  -0.686549  -0.000810   0.000275 -15.099440  -2.047923  10.360497  62.269209   0.016384   0.007352  -9.166094  -2.748093 -11.560449  -0.217003   0.011297   0.011912
 -2.442823   0.893317   4.736934  -4.441618   9.589603  -5.549184  15.628993   1.014341  -3.181343  15.613145  -1.453114   1.620654   5.039425   3.903657  -2.324138   4.857211  15.327520  12.276466  16.363502  11.020838  19.203196   0.001018  12.922061  -0.001187  10.710328   0.974191  -4.486930  -4.287165 -22.455372 -16.735255   0.427018 -12.336307 -18.777027  -0.001413 -14.362121   0.000209   4.799203  -1.213195   9.163040  -6.394261  -3.616614  11.560940  21.352977  -0.000393  -0.000319 -10.175464  -4.515163  -6.332274  -0.681408  -0.000645   0.000220 -15.934676  -1.822900  10.240876  63.143563   0.016663   0.006773  -8.749385  -2.577669 -11.581976   0.111358   0.010423   0.010815
